<svg width="200" height="200" viewBox="0 0 200 200" fill="#fff" xmlns="http://www.w3.org/2000/svg">
        <g id="Layer_1-2">
            <path class="cls-1"
                  d="M195.07,96c-.24,26.72-8.47,48.84-25.58,67.36-20.32,22-45.69,32.5-75.58,31.61a93,93,0,0,1-60.52-23.89C10.27,150.57-.89,124.67.05,93.82A93.19,93.19,0,0,1,25.4,31.76C45.77,9.68,71.2-.87,101.19.06A93.23,93.23,0,0,1,161.63,24C183.68,43.46,194.65,68.11,195.07,96ZM96.6,1.52c-27.06.62-50.89,10.71-69.86,31.32C10.77,50.19,2.26,71,1.69,94.5c-.72,29.84,10.21,55,32.52,74.95a91.79,91.79,0,0,0,60.4,23.86c29.09.69,53.85-9.78,73.62-31.16a91.87,91.87,0,0,0,25.06-61.73c.7-29.82-10.22-55-32.52-74.87C142.82,9.56,121.47,1.92,96.6,1.52Z"/>
            <path class="cls-1"
                  d="M97.57,5.42c50.73-.18,92.68,41.15,92.61,92.72A92.66,92.66,0,1,1,97.57,5.42ZM127.68,179c1.76-.71,3.37-1.38,5-2,.64-.25.81-.56.46-1.2-.72-1.32-1.37-2.67-2.06-4-.43-.81-.38-1,.42-1.42,1.49-.74,3-1.45,4.45-2.22s1.21-.68,1.9.66,1.46,2.91,2.26,4.49L145.5,170c-1.13-1.55-2.14-3-3.24-4.43-.5-.64-.36-1,.23-1.43,1.48-1.05,3-2.11,4.42-3.2.54-.41.87-.35,1.25.18,1,1.33,2,2.62,2.9,4,.34.5.59.5,1,.12s1-.79,1.5-1.21c.92-.79,1.83-1.6,2.67-2.34-1.35-1.42-2.62-2.76-3.91-4.08-.43-.42-.5-.74,0-1.2,1.29-1.25,2.55-2.53,3.8-3.81.81-.83,1-.83,1.79,0,1,1.05,2,2,3,3.11.57.62,1,.47,1.41-.09.95-1.16,1.91-2.32,2.92-3.43.46-.5.39-.76-.13-1.12-1.3-.9-2.54-1.88-3.86-2.75-.68-.46-.65-.85-.21-1.43.85-1.1,1.65-2.24,2.5-3.34,1.62-2.14.92-2,3.11-.42l3.47,2.47,3.31-5.35c-1.81-.94-3.48-1.84-5.18-2.67-.56-.27-.63-.53-.37-1,.84-1.61,1.65-3.25,2.47-4.87.5-1,.59-1,1.61-.48,1.38.7,2.77,1.39,4.15,2.11.45.24.72.21.91-.32s.49-1.07.71-1.61c.49-1.17,1-2.34,1.48-3.61-1.89-.61-3.66-1.2-5.45-1.74-.6-.18-.69-.46-.51-1,.63-1.82,1.26-3.63,1.84-5.47.18-.58.44-.7,1-.52,1.45.48,2.91.92,4.35,1.4.93.31,1.06.29,1.29-.63.36-1.45.64-2.92,1.05-4.36.2-.68-.05-.89-.62-1-.82-.12-1.65-.22-2.47-.35l-3.12-.53c.07-.44.12-.73.16-1,.28-1.77.56-3.54.82-5.31.1-.75.5-.85,1.17-.72,1.55.29,3.12.51,4.67.77.41.06.68,0,.71-.52.11-1.52.22-3,.36-4.55.06-.64-.24-.77-.79-.76-1.56,0-3.12,0-4.67,0-.58,0-.83-.17-.82-.78,0-2,0-3.91,0-5.87,0-.61.21-.8.79-.79,1.53,0,3.06,0,4.59,0,.69,0,1-.17.91-.91-.16-1.54-.27-3.08-.37-4.62,0-.59-.3-.7-.84-.61-1.58.28-3.17.5-4.76.75-.52.08-.79-.09-.87-.65-.18-1.38-.43-2.74-.65-4.11-.09-.58-.17-1.16-.24-1.75-.06-.43.07-.68.57-.75,1.64-.24,3.28-.52,4.91-.83.22,0,.59-.37.57-.49-.38-1.69-.83-3.37-1.24-5-.11-.48-.3-.59-.8-.42-1.56.55-3.15,1-4.72,1.56-.44.15-.68.08-.84-.4-.63-1.9-1.3-3.8-1.95-5.69-.17-.5.08-.74.54-.89,1.58-.5,3.15-1,4.73-1.53.42-.13.58-.31.39-.75-.67-1.57-1.34-3.14-2-4.73-.17-.41-.36-.49-.78-.27-1.5.79-3,1.51-4.51,2.28-.45.23-.67.12-.88-.31-.66-1.32-1.34-2.62-2-3.92-1-2-1-2,1-3,1.19-.59,2.36-1.22,3.63-1.88L170,49.74c-1.62,1.17-3.06,2.23-4.53,3.24-.21.15-.76.17-.87,0q-1.89-2.49-3.69-5.07a.82.82,0,0,1,.16-.78,13.31,13.31,0,0,1,1.41-1.06l3.14-2.29c-1.29-1.47-2.5-2.82-3.67-4.21-.42-.49-.67-.4-1.08,0-1.08,1.12-2.22,2.18-3.31,3.28-.38.38-.69.44-1.09,0q-2-2-4.06-4c-.51-.49-.48-.83,0-1.31,1.27-1.18,2.49-2.42,3.81-3.73l-4.85-4.07c-.34.43-.61.75-.86,1.09-.79,1.09-1.58,2.17-2.35,3.26-.34.48-.64.61-1.17.19q-2-1.53-4-3c-1.45-1-1.26-.88-.29-2.24l2.64-3.61L140,22.38a3.21,3.21,0,0,0-.23.35c-.78,1.46-1.57,2.92-2.34,4.39-.21.4-.45.67-.94.42-1.77-.9-3.53-1.79-5.29-2.7a.64.64,0,0,1-.31-1c.76-1.37,1.44-2.8,2.18-4.18.24-.44.13-.59-.3-.76-1.5-.59-3-1.2-4.46-1.84-.62-.28-.94-.13-1.13.51s-.45,1.43-.69,2.14c-.3.9-.62,1.79-.94,2.71-2.23-.7-4.32-1.37-6.41-2-.57-.18-.41-.55-.3-.9.51-1.64,1.05-3.28,1.59-5-.61-.17-1.19-.34-1.79-.48-1.22-.28-2.45-.58-3.68-.8a.9.9,0,0,0-.76.42c-.2.83-.27,1.68-.4,2.52-.1.66-.27,1.31-.33,2s-.46.81-1,.72l-5.7-.92c-.45-.07-.63-.3-.54-.78.26-1.47.5-2.94.73-4.42.07-.4.17-.83-.48-.85-1.53-.07-3-.13-4.58-.24-.61,0-.79.18-.77.78,0,1.39,0,2.79,0,4.18,0,.57-.13.82-.76.81-1.91,0-3.81,0-5.72,0-.72,0-.93-.26-.89-.94,0-1,0-2.09,0-3.13,0-1.7,0-1.72-1.64-1.65-1.23.06-2.46.17-3.69.28-.58,0-.94.25-.73,1a14.17,14.17,0,0,1,.29,2,22.17,22.17,0,0,1,.26,2.3.93.93,0,0,1-.52.7c-1.15.25-2.31.42-3.47.61-.82.13-1.64.24-2.46.34-.45.06-.64-.11-.71-.61-.21-1.48-.53-2.94-.75-4.41-.08-.52-.26-.62-.74-.5-.78.19-1.57.31-2.35.5-1,.26-2,.56-3.08.84.55,1.7,1,3.28,1.57,4.84.21.6-.06.83-.57,1-1.8.58-3.61,1.17-5.41,1.78-.55.18-.84,0-1-.53-.44-1.41-.92-2.79-1.38-4.19-.11-.33-.2-.62-.66-.43L62,19.12c-.49.2-.54.45-.28.93.69,1.24,1.32,2.51,2,3.77.2.39.42.77-.18,1.06-1.73.86-3.43,1.75-5.16,2.62-.51.25-.93.26-1.24-.38-.6-1.28-1.28-2.52-1.9-3.79-.22-.43-.47-.55-.89-.31s-.83.49-1.24.75L49.43,26c1,1.36,1.88,2.67,2.88,3.88.51.62.41.95-.15,1.35l-4.69,3.4c-.42.31-.71.22-1-.19-.85-1.21-1.74-2.38-2.57-3.6-.31-.47-.55-.47-.94-.13-.77.67-1.56,1.31-2.33,2s-1.22,1.09-2.05,1.83c1.33,1.25,2.56,2.4,3.8,3.54.37.33.36.59,0,.93-1.42,1.38-2.84,2.77-4.24,4.17-.4.4-.71.38-1.07,0s-.67-.69-1-1l-2.59-2.51-4,4.67c.22.18.35.31.49.41,1.2.87,2.39,1.73,3.6,2.58.43.3.56.62.23,1.07-1.18,1.6-2.36,3.19-3.52,4.79-.33.46-.61.46-1.05.13-1.32-1-2.68-1.94-4.12-3l-3.26,5.25a8.12,8.12,0,0,0,.76.46l3.67,1.81c.54.27.74.58.4,1.21-.79,1.42-1.5,2.89-2.23,4.35s-.86,1.45-2.21.69l-.2-.14-3.57-1.81-2,4.74c-.39,1-.3,1.1.67,1.39,1.28.39,2.54.83,3.81,1.23.45.15.67.34.48.88-.58,1.66-1.14,3.33-1.65,5-.39,1.27-.46,1.33-1.71.88S15.7,75.37,14.49,75c-.23-.06-.76.12-.8.28-.47,1.8-.87,3.62-1.29,5.46a2,2,0,0,0,.41.16c1.56.25,3.11.5,4.67.73.38.06.68.07.59.61-.32,2-.6,4-.9,6-.08.56-.34.75-.94.64-1.44-.28-2.9-.47-4.36-.71-.39-.06-.67-.06-.7.47-.09,1.47-.19,2.94-.33,4.41-.06.7.22.86.87.84,1.34,0,2.69,0,4,0,.67,0,.89.23.88.88,0,1.83-.05,3.65,0,5.47,0,.72-.16.95-.88.93-1.42,0-2.84,0-4.26,0-.33,0-.75-.09-.7.49.12,1.66.24,3.31.33,5,0,.6.26.78.86.67,1.37-.23,2.75-.43,4.13-.62.46-.06.92-.13,1,.56.28,1.93.58,3.86.88,5.79.08.52-.08.76-.65.84-1.46.2-2.91.47-4.36.68-.47.07-.67.21-.54.74.41,1.6.81,3.21,1.16,4.83.12.53.33.58.78.43,1.39-.46,2.8-.87,4.19-1.37.69-.25,1,0,1.17.62.54,1.76,1.07,3.53,1.68,5.26.23.68.14,1-.57,1.15-1.61.46-3.19,1-4.88,1.56.81,1.94,1.59,3.8,2.41,5.73,1.57-.8,3.06-1.52,4.51-2.3.56-.31.88-.33,1.2.31.89,1.77,1.86,3.49,2.73,5.27a1,1,0,0,1-.32.88,13.19,13.19,0,0,1-1.71.89l-3.09,1.59c1,1.66,2,3.18,2.91,4.71.28.45.53.48,1,.15,1.15-.87,2.34-1.7,3.51-2.55.76-.55.9-.53,1.47.25,1.11,1.51,2.19,3,3.33,4.53.35.45.24.69-.17,1s-1.09.77-1.63,1.17l-2.72,2,4.05,4.7c.26-.21.43-.33.58-.48,1.06-1.06,2.13-2.12,3.16-3.2.45-.47.77-.51,1.25,0,1.22,1.29,2.48,2.53,3.74,3.76.87.85.89.9,0,1.77l-3.45,3.51c.19.14.39.28.57.44,1.19,1,2.4,2,3.55,3,.49.43.75.45,1.13-.11.85-1.24,1.76-2.43,2.64-3.65.34-.48.67-.6,1.19-.2,1.41,1.06,2.85,2.1,4.29,3.12,1,.69,1,.8.29,1.73-1,1.29-1.94,2.61-3,4l5.39,3.34c.87-1.74,1.66-3.29,2.41-4.85.29-.6.6-.7,1.2-.38,1.42.78,2.88,1.52,4.34,2.25s1.44.71.71,2.15-1.36,2.7-2.11,4.19c1.89.77,3.66,1.5,5.46,2.19.12.05.48-.18.54-.35.51-1.51,1-3,1.47-4.57.19-.63.45-.8,1.11-.56q2.64.93,5.33,1.75c.65.2.77.5.55,1.13-.57,1.63-1.09,3.27-1.65,5a3.61,3.61,0,0,0,.4.17c1.55.39,3.14.69,4.65,1.2,1,.34,1.13.13,1.31-.83.28-1.41.44-2.84.63-4.26.08-.65.36-.88,1-.75,1,.21,2.06.35,3.09.51s1.85.28,2.77.47c.18,0,.48.32.46.46-.09.84-.28,1.68-.41,2.52-.16,1-.3,2.08-.47,3.21,1.77.15,3.37.26,5,.45.71.09.9-.13.88-.8,0-1.48,0-3,0-4.43,0-.72.17-1,1-1,1.85,0,3.7,0,5.55,0,.69,0,1,.18.94.91,0,1.53,0,3.06,0,4.59,0,.61.2.82.79.77,1.09-.09,2.19-.13,3.28-.23.75-.07,1.5-.21,2.27-.32-.3-1.79-.58-3.5-.88-5.2-.1-.6,0-.91.74-1,1.87-.26,3.74-.6,5.61-.92.64-.11.91.17,1,.81.21,1.56.48,3.11.71,4.67.07.45.22.68.73.55,1.66-.41,3.32-.8,5-1.22a.53.53,0,0,0,.42-.79c-.54-1.56-1-3.14-1.59-4.7-.2-.54,0-.76.48-.93,1.84-.57,3.68-1.16,5.49-1.8.58-.2.87,0,1,.48s.4,1.33.63,2C126.89,176.75,127.28,177.85,127.68,179Z" />
        </g>
</svg>
