<svg width="200" height="200" viewBox="0 0 200 200" fill="#fff" xmlns="http://www.w3.org/2000/svg">
        <g id="Layer_1-2">
            <path class="cls-1" d="M163.38,94c-.9-4.32-4.42-7.15-6.9-10.54-2.32-2.65-2.83-6.18-2.73-9.62,2.68-10.45-3-21.19-14.79-19.9-6.65.84-11.93,5.54-16.4,10.21,2.75-5,5.36-10.11,4.8-16-.34-6.26-4.89-12.26-11.07-13.67C111,33,106,35.89,101.09,37.64c-3.76,1.6-7.71-.15-11.13-1.79-8.26-4.7-19.8-.24-20.85,9.66-.77,6.67,1.6,13.07,4.72,18.86-4.7-4.73-10.06-9.79-17-10.49-14-1.17-17.42,8.66-15.62,20.72,1,5.54-3.58,9.15-6.66,13C29.67,93,30.24,102.15,36,106.74c6.28,5.55,15.34,4.52,23.08,3.41-4.38,2.33-9.18,4.27-12.59,8.08a16.32,16.32,0,0,0-4.08,16c1.55,5.87,7.73,8.58,13.2,9.7,3.83.79,7.64,2.49,9.8,5.9,2.65,4.13,4.8,9.48,10.11,10.6,5.53,1.54,12.1.14,15.69-4.58,3.88-4.79,5.25-11.08,6.25-17,1.38,7.9,2.8,17.93,11.38,21.18,7.67,2.85,16-.19,19.52-7.68,2.27-4.8,7.12-7.58,12.16-8.64,4.07-.93,8.56-2.3,10.9-6a15,15,0,0,0-.27-15.52c-3.19-5.53-9.22-8.17-14.55-11.16,6,.91,12.22,2.26,18.06-.1A14.84,14.84,0,0,0,163.38,94Zm-42.71,30.11c-.77.06-2.06-.29-3-.24-2,0-5,0-7,0s-4.31.72-3.62-1c4.25-3.5,3.51-4.3,3.86-10.62l.09-1a11.88,11.88,0,0,1-.41-1.69c0-1.4.12-4.39.24-5.71,0-2.2-.21-3.6-.64-4.19-.52-1.08-4.76-1.3-6.84-1.29a38.76,38.76,0,0,1-6.68,0,14.45,14.45,0,0,1-5.23-.16c-2.92-.55-6.67.17-6.93,2.82.09,1.59-.13,3.95,0,5.55a30.5,30.5,0,0,1-.12,6.84c0,2.76,1.23,4.62,1.61,6a22.92,22.92,0,0,0,2.42,2.5c2.19,1.46,1.09,2-.73,1.85H84.37a42.33,42.33,0,0,1-5.47-.24c-1.75,0-7.83,1-7.81-1.13,1-2.76,5.83.2,6-6.84.42-4.77-.58-9.11.24-16.18-.18-4.6-.36-4.44.32-8.61.22-1.72-.19-3.11-.08-5.15s0-5.17,0-7.33c.16-2.87-1-5.13-3.54-5.87-2-.57-1.67-2.82.89-2.58,2.54.06,5.49.22,8.45.16,1.11.23,5.43-.83,5.39,1,.13.88-1.54,1.65-2,2.17-2.72,2.2-2,7.23-1.85,11.67S82.26,93.37,88,94.52c2.22.33,10.29.42,12.63-.08l4.51.56c1,.2,5.56-.82,5.47-3.06a55.28,55.28,0,0,1-.16-6.35l.24-3.79a13.56,13.56,0,0,1-.24-1.77c.16-2.16.37-4.66-1-6.36-.42-.67-2.89-1-2.66-2.09,0-.7.54-1,1.61-1a35.06,35.06,0,0,1,5.71.16c1.53-.18,7.53-.93,7.57.49,0,.21-.86,1.1-2.57,2.65-1.22.8-1.61,5.89-1.21,8.54a44.62,44.62,0,0,0,.24,7.4c-.24,1.7-.14,3.19-.24,5.07a27.44,27.44,0,0,0,0,6.52c0,.67-.07,3.16-.08,3.86.25,3.59-1.17,13.18,1.53,15.62C120.43,121.46,123.42,123.8,120.67,124.06Z" />
        </g>
</svg>
